<mxfile host="app.diagrams.net" modified="2023-11-01T07:41:07.637Z" agent="Mozilla/5.0 (Windows NT 10.0; Win64; x64) AppleWebKit/537.36 (KHTML, like Gecko) Chrome/109.0.0.0 Safari/537.36" etag="6Gx-jg_XyqJtR5VGC5a9" version="22.0.8" type="github">
  <diagram name="第 1 页" id="EuBqh_oqPs6KqO-YiZT5">
    <mxGraphModel dx="3989" dy="1926" grid="0" gridSize="10" guides="1" tooltips="1" connect="1" arrows="1" fold="1" page="0" pageScale="1" pageWidth="827" pageHeight="1169" math="0" shadow="0">
      <root>
        <mxCell id="0" />
        <mxCell id="1" parent="0" />
        <mxCell id="u5RR9yo09rP_WizoRHIb-3" value="" style="edgeStyle=orthogonalEdgeStyle;rounded=0;orthogonalLoop=1;jettySize=auto;html=1;entryX=0.5;entryY=0;entryDx=0;entryDy=0;exitX=0.5;exitY=1;exitDx=0;exitDy=0;" parent="1" source="u5RR9yo09rP_WizoRHIb-1" target="u5RR9yo09rP_WizoRHIb-47" edge="1">
          <mxGeometry relative="1" as="geometry">
            <mxPoint x="-425" y="219.00000000000023" as="targetPoint" />
          </mxGeometry>
        </mxCell>
        <mxCell id="u5RR9yo09rP_WizoRHIb-49" style="edgeStyle=orthogonalEdgeStyle;rounded=0;orthogonalLoop=1;jettySize=auto;html=1;exitX=0.5;exitY=1;exitDx=0;exitDy=0;entryX=0.5;entryY=0;entryDx=0;entryDy=0;" parent="1" source="u5RR9yo09rP_WizoRHIb-1" target="u5RR9yo09rP_WizoRHIb-48" edge="1">
          <mxGeometry relative="1" as="geometry" />
        </mxCell>
        <mxCell id="u5RR9yo09rP_WizoRHIb-1" value="开始" style="ellipse;whiteSpace=wrap;html=1;" parent="1" vertex="1">
          <mxGeometry x="-561" y="-29" width="120" height="80" as="geometry" />
        </mxCell>
        <mxCell id="u5RR9yo09rP_WizoRHIb-10" value="靠近不显示交互提示&lt;br&gt;也无法手动开启" style="ellipse;whiteSpace=wrap;html=1;" parent="1" vertex="1">
          <mxGeometry x="-561" y="117" width="120" height="80" as="geometry" />
        </mxCell>
        <mxCell id="u5RR9yo09rP_WizoRHIb-25" value="" style="edgeStyle=orthogonalEdgeStyle;rounded=0;orthogonalLoop=1;jettySize=auto;html=1;exitX=0;exitY=0.5;exitDx=0;exitDy=0;entryX=0.5;entryY=0;entryDx=0;entryDy=0;" parent="1" source="u5RR9yo09rP_WizoRHIb-16" target="u5RR9yo09rP_WizoRHIb-60" edge="1">
          <mxGeometry relative="1" as="geometry">
            <mxPoint x="-962.15" y="417" as="targetPoint" />
          </mxGeometry>
        </mxCell>
        <mxCell id="u5RR9yo09rP_WizoRHIb-69" value="开" style="edgeLabel;html=1;align=center;verticalAlign=middle;resizable=0;points=[];" parent="u5RR9yo09rP_WizoRHIb-25" vertex="1" connectable="0">
          <mxGeometry x="-0.2913" y="1" relative="1" as="geometry">
            <mxPoint as="offset" />
          </mxGeometry>
        </mxCell>
        <mxCell id="u5RR9yo09rP_WizoRHIb-68" style="edgeStyle=orthogonalEdgeStyle;rounded=0;orthogonalLoop=1;jettySize=auto;html=1;exitX=1;exitY=0.5;exitDx=0;exitDy=0;entryX=0.5;entryY=0;entryDx=0;entryDy=0;" parent="1" source="u5RR9yo09rP_WizoRHIb-16" target="u5RR9yo09rP_WizoRHIb-67" edge="1">
          <mxGeometry relative="1" as="geometry" />
        </mxCell>
        <mxCell id="u5RR9yo09rP_WizoRHIb-76" value="关" style="edgeLabel;html=1;align=center;verticalAlign=middle;resizable=0;points=[];" parent="u5RR9yo09rP_WizoRHIb-68" vertex="1" connectable="0">
          <mxGeometry x="-0.43" y="-1" relative="1" as="geometry">
            <mxPoint as="offset" />
          </mxGeometry>
        </mxCell>
        <mxCell id="u5RR9yo09rP_WizoRHIb-16" value="当前处于开/关？" style="rhombus;whiteSpace=wrap;html=1;" parent="1" vertex="1">
          <mxGeometry x="-888.15" y="278" width="132" height="80" as="geometry" />
        </mxCell>
        <mxCell id="u5RR9yo09rP_WizoRHIb-43" value="无反应" style="rounded=1;whiteSpace=wrap;html=1;" parent="1" vertex="1">
          <mxGeometry x="-1117" y="495" width="55.17" height="60" as="geometry" />
        </mxCell>
        <mxCell id="u5RR9yo09rP_WizoRHIb-58" style="edgeStyle=orthogonalEdgeStyle;rounded=0;orthogonalLoop=1;jettySize=auto;html=1;exitX=0.5;exitY=1;exitDx=0;exitDy=0;entryX=0.5;entryY=0;entryDx=0;entryDy=0;" parent="1" source="u5RR9yo09rP_WizoRHIb-47" target="u5RR9yo09rP_WizoRHIb-118" edge="1">
          <mxGeometry relative="1" as="geometry">
            <mxPoint x="-334" y="278" as="targetPoint" />
          </mxGeometry>
        </mxCell>
        <mxCell id="u5RR9yo09rP_WizoRHIb-59" value="Y" style="edgeLabel;html=1;align=center;verticalAlign=middle;resizable=0;points=[];" parent="u5RR9yo09rP_WizoRHIb-58" vertex="1" connectable="0">
          <mxGeometry x="-0.2876" y="2" relative="1" as="geometry">
            <mxPoint x="-2" y="4" as="offset" />
          </mxGeometry>
        </mxCell>
        <mxCell id="u5RR9yo09rP_WizoRHIb-47" value="是否允许交互关门" style="rhombus;whiteSpace=wrap;html=1;" parent="1" vertex="1">
          <mxGeometry x="-254.14999999999998" y="117" width="132" height="80" as="geometry" />
        </mxCell>
        <mxCell id="u5RR9yo09rP_WizoRHIb-51" value="" style="edgeStyle=orthogonalEdgeStyle;rounded=0;orthogonalLoop=1;jettySize=auto;html=1;" parent="1" source="u5RR9yo09rP_WizoRHIb-48" target="u5RR9yo09rP_WizoRHIb-10" edge="1">
          <mxGeometry relative="1" as="geometry" />
        </mxCell>
        <mxCell id="u5RR9yo09rP_WizoRHIb-52" value="N" style="edgeLabel;html=1;align=center;verticalAlign=middle;resizable=0;points=[];" parent="u5RR9yo09rP_WizoRHIb-51" vertex="1" connectable="0">
          <mxGeometry x="-0.081" relative="1" as="geometry">
            <mxPoint as="offset" />
          </mxGeometry>
        </mxCell>
        <mxCell id="u5RR9yo09rP_WizoRHIb-54" style="edgeStyle=orthogonalEdgeStyle;rounded=0;orthogonalLoop=1;jettySize=auto;html=1;exitX=0.5;exitY=1;exitDx=0;exitDy=0;" parent="1" source="u5RR9yo09rP_WizoRHIb-48" target="u5RR9yo09rP_WizoRHIb-16" edge="1">
          <mxGeometry relative="1" as="geometry" />
        </mxCell>
        <mxCell id="u5RR9yo09rP_WizoRHIb-56" value="Y" style="edgeLabel;html=1;align=center;verticalAlign=middle;resizable=0;points=[];" parent="u5RR9yo09rP_WizoRHIb-54" vertex="1" connectable="0">
          <mxGeometry x="-0.8561" relative="1" as="geometry">
            <mxPoint y="29" as="offset" />
          </mxGeometry>
        </mxCell>
        <mxCell id="u5RR9yo09rP_WizoRHIb-48" value="是否允许交互开门" style="rhombus;whiteSpace=wrap;html=1;" parent="1" vertex="1">
          <mxGeometry x="-888.15" y="117" width="132" height="80" as="geometry" />
        </mxCell>
        <mxCell id="u5RR9yo09rP_WizoRHIb-50" style="edgeStyle=orthogonalEdgeStyle;rounded=0;orthogonalLoop=1;jettySize=auto;html=1;exitX=0;exitY=0.5;exitDx=0;exitDy=0;entryX=1;entryY=0.5;entryDx=0;entryDy=0;" parent="1" source="u5RR9yo09rP_WizoRHIb-47" target="u5RR9yo09rP_WizoRHIb-10" edge="1">
          <mxGeometry relative="1" as="geometry" />
        </mxCell>
        <mxCell id="u5RR9yo09rP_WizoRHIb-53" value="N" style="edgeLabel;html=1;align=center;verticalAlign=middle;resizable=0;points=[];" parent="u5RR9yo09rP_WizoRHIb-50" vertex="1" connectable="0">
          <mxGeometry x="-0.1057" y="-1" relative="1" as="geometry">
            <mxPoint as="offset" />
          </mxGeometry>
        </mxCell>
        <mxCell id="u5RR9yo09rP_WizoRHIb-61" style="edgeStyle=orthogonalEdgeStyle;rounded=0;orthogonalLoop=1;jettySize=auto;html=1;exitX=0;exitY=0.5;exitDx=0;exitDy=0;entryX=0.5;entryY=0;entryDx=0;entryDy=0;" parent="1" source="u5RR9yo09rP_WizoRHIb-60" target="u5RR9yo09rP_WizoRHIb-43" edge="1">
          <mxGeometry relative="1" as="geometry">
            <mxPoint x="-1100.3553875101024" y="456.80873055293637" as="targetPoint" />
          </mxGeometry>
        </mxCell>
        <mxCell id="u5RR9yo09rP_WizoRHIb-78" value="WF开" style="edgeLabel;html=1;align=center;verticalAlign=middle;resizable=0;points=[];" parent="u5RR9yo09rP_WizoRHIb-61" vertex="1" connectable="0">
          <mxGeometry x="0.2785" y="-1" relative="1" as="geometry">
            <mxPoint y="-4" as="offset" />
          </mxGeometry>
        </mxCell>
        <mxCell id="u5RR9yo09rP_WizoRHIb-81" style="edgeStyle=orthogonalEdgeStyle;rounded=0;orthogonalLoop=1;jettySize=auto;html=1;exitX=1;exitY=0.5;exitDx=0;exitDy=0;" parent="1" source="u5RR9yo09rP_WizoRHIb-60" target="u5RR9yo09rP_WizoRHIb-80" edge="1">
          <mxGeometry relative="1" as="geometry" />
        </mxCell>
        <mxCell id="u5RR9yo09rP_WizoRHIb-82" value="WF关" style="edgeLabel;html=1;align=center;verticalAlign=middle;resizable=0;points=[];" parent="u5RR9yo09rP_WizoRHIb-81" vertex="1" connectable="0">
          <mxGeometry x="-0.1105" y="2" relative="1" as="geometry">
            <mxPoint y="20" as="offset" />
          </mxGeometry>
        </mxCell>
        <mxCell id="u5RR9yo09rP_WizoRHIb-83" value="" style="edgeStyle=orthogonalEdgeStyle;rounded=0;orthogonalLoop=1;jettySize=auto;html=1;" parent="1" source="u5RR9yo09rP_WizoRHIb-60" target="u5RR9yo09rP_WizoRHIb-65" edge="1">
          <mxGeometry relative="1" as="geometry" />
        </mxCell>
        <mxCell id="u5RR9yo09rP_WizoRHIb-84" value="玩家靠近" style="edgeLabel;html=1;align=center;verticalAlign=middle;resizable=0;points=[];" parent="u5RR9yo09rP_WizoRHIb-83" vertex="1" connectable="0">
          <mxGeometry x="-0.3235" y="-1" relative="1" as="geometry">
            <mxPoint as="offset" />
          </mxGeometry>
        </mxCell>
        <mxCell id="u5RR9yo09rP_WizoRHIb-60" value="WF/玩家靠近" style="rhombus;whiteSpace=wrap;html=1;" parent="1" vertex="1">
          <mxGeometry x="-1049.53" y="371" width="132" height="80" as="geometry" />
        </mxCell>
        <mxCell id="u5RR9yo09rP_WizoRHIb-65" value="不显示交互提示&lt;br&gt;也无法交互" style="rounded=1;whiteSpace=wrap;html=1;" parent="1" vertex="1">
          <mxGeometry x="-1038.78" y="495" width="110.5" height="60" as="geometry" />
        </mxCell>
        <mxCell id="u5RR9yo09rP_WizoRHIb-85" value="" style="edgeStyle=orthogonalEdgeStyle;rounded=0;orthogonalLoop=1;jettySize=auto;html=1;" parent="1" source="u5RR9yo09rP_WizoRHIb-67" target="u5RR9yo09rP_WizoRHIb-74" edge="1">
          <mxGeometry relative="1" as="geometry" />
        </mxCell>
        <mxCell id="8EaNkNPe5WHarpM65g4N-2" value="玩家靠近" style="edgeLabel;html=1;align=center;verticalAlign=middle;resizable=0;points=[];" vertex="1" connectable="0" parent="u5RR9yo09rP_WizoRHIb-85">
          <mxGeometry x="-0.2338" y="-4" relative="1" as="geometry">
            <mxPoint as="offset" />
          </mxGeometry>
        </mxCell>
        <mxCell id="u5RR9yo09rP_WizoRHIb-89" style="edgeStyle=orthogonalEdgeStyle;rounded=0;orthogonalLoop=1;jettySize=auto;html=1;exitX=1;exitY=0.5;exitDx=0;exitDy=0;entryX=0.5;entryY=0;entryDx=0;entryDy=0;" parent="1" source="u5RR9yo09rP_WizoRHIb-67" target="u5RR9yo09rP_WizoRHIb-88" edge="1">
          <mxGeometry relative="1" as="geometry" />
        </mxCell>
        <mxCell id="u5RR9yo09rP_WizoRHIb-90" value="WF关" style="edgeLabel;html=1;align=center;verticalAlign=middle;resizable=0;points=[];" parent="u5RR9yo09rP_WizoRHIb-89" vertex="1" connectable="0">
          <mxGeometry x="0.2095" y="-2" relative="1" as="geometry">
            <mxPoint x="2" y="2" as="offset" />
          </mxGeometry>
        </mxCell>
        <mxCell id="u5RR9yo09rP_WizoRHIb-67" value="WF/玩家靠近" style="rhombus;whiteSpace=wrap;html=1;" parent="1" vertex="1">
          <mxGeometry x="-726.78" y="371" width="132" height="80" as="geometry" />
        </mxCell>
        <mxCell id="u5RR9yo09rP_WizoRHIb-70" style="edgeStyle=orthogonalEdgeStyle;rounded=0;orthogonalLoop=1;jettySize=auto;html=1;exitX=0;exitY=0.5;exitDx=0;exitDy=0;entryX=0.5;entryY=0;entryDx=0;entryDy=0;" parent="1" source="u5RR9yo09rP_WizoRHIb-67" target="u5RR9yo09rP_WizoRHIb-75" edge="1">
          <mxGeometry relative="1" as="geometry">
            <mxPoint x="-782.3553875101023" y="471.80873055293637" as="targetPoint" />
            <mxPoint x="-764.15" y="426" as="sourcePoint" />
          </mxGeometry>
        </mxCell>
        <mxCell id="u5RR9yo09rP_WizoRHIb-87" value="WF开" style="edgeLabel;html=1;align=center;verticalAlign=middle;resizable=0;points=[];" parent="u5RR9yo09rP_WizoRHIb-70" vertex="1" connectable="0">
          <mxGeometry x="0.2596" relative="1" as="geometry">
            <mxPoint as="offset" />
          </mxGeometry>
        </mxCell>
        <mxCell id="u5RR9yo09rP_WizoRHIb-74" value="显示交互提示“开门”&lt;br&gt;可以手动开启" style="rounded=1;whiteSpace=wrap;html=1;" parent="1" vertex="1">
          <mxGeometry x="-716.03" y="495" width="110.5" height="60" as="geometry" />
        </mxCell>
        <mxCell id="u5RR9yo09rP_WizoRHIb-75" value="开门" style="rounded=1;whiteSpace=wrap;html=1;" parent="1" vertex="1">
          <mxGeometry x="-792.15" y="495" width="48.37" height="60" as="geometry" />
        </mxCell>
        <mxCell id="u5RR9yo09rP_WizoRHIb-80" value="关门" style="rounded=1;whiteSpace=wrap;html=1;" parent="1" vertex="1">
          <mxGeometry x="-903.7" y="495" width="53.63" height="60" as="geometry" />
        </mxCell>
        <mxCell id="u5RR9yo09rP_WizoRHIb-88" value="无反应" style="rounded=1;whiteSpace=wrap;html=1;" parent="1" vertex="1">
          <mxGeometry x="-578.15" y="495" width="55.17" height="60" as="geometry" />
        </mxCell>
        <mxCell id="u5RR9yo09rP_WizoRHIb-114" value="" style="edgeStyle=orthogonalEdgeStyle;rounded=0;orthogonalLoop=1;jettySize=auto;html=1;exitX=0;exitY=0.5;exitDx=0;exitDy=0;entryX=0.5;entryY=0;entryDx=0;entryDy=0;" parent="1" source="u5RR9yo09rP_WizoRHIb-118" target="u5RR9yo09rP_WizoRHIb-126" edge="1">
          <mxGeometry relative="1" as="geometry">
            <mxPoint x="-328.15" y="417" as="targetPoint" />
          </mxGeometry>
        </mxCell>
        <mxCell id="u5RR9yo09rP_WizoRHIb-115" value="开" style="edgeLabel;html=1;align=center;verticalAlign=middle;resizable=0;points=[];" parent="u5RR9yo09rP_WizoRHIb-114" vertex="1" connectable="0">
          <mxGeometry x="-0.2913" y="1" relative="1" as="geometry">
            <mxPoint as="offset" />
          </mxGeometry>
        </mxCell>
        <mxCell id="u5RR9yo09rP_WizoRHIb-116" style="edgeStyle=orthogonalEdgeStyle;rounded=0;orthogonalLoop=1;jettySize=auto;html=1;exitX=1;exitY=0.5;exitDx=0;exitDy=0;entryX=0.5;entryY=0;entryDx=0;entryDy=0;" parent="1" source="u5RR9yo09rP_WizoRHIb-118" target="u5RR9yo09rP_WizoRHIb-131" edge="1">
          <mxGeometry relative="1" as="geometry" />
        </mxCell>
        <mxCell id="u5RR9yo09rP_WizoRHIb-117" value="关" style="edgeLabel;html=1;align=center;verticalAlign=middle;resizable=0;points=[];" parent="u5RR9yo09rP_WizoRHIb-116" vertex="1" connectable="0">
          <mxGeometry x="-0.43" y="-1" relative="1" as="geometry">
            <mxPoint as="offset" />
          </mxGeometry>
        </mxCell>
        <mxCell id="u5RR9yo09rP_WizoRHIb-118" value="当前处于开/关？" style="rhombus;whiteSpace=wrap;html=1;" parent="1" vertex="1">
          <mxGeometry x="-254.14999999999998" y="278" width="132" height="80" as="geometry" />
        </mxCell>
        <mxCell id="u5RR9yo09rP_WizoRHIb-119" value="无反应" style="rounded=1;whiteSpace=wrap;html=1;" parent="1" vertex="1">
          <mxGeometry x="-483" y="495" width="55.17" height="60" as="geometry" />
        </mxCell>
        <mxCell id="u5RR9yo09rP_WizoRHIb-120" style="edgeStyle=orthogonalEdgeStyle;rounded=0;orthogonalLoop=1;jettySize=auto;html=1;exitX=0;exitY=0.5;exitDx=0;exitDy=0;entryX=0.5;entryY=0;entryDx=0;entryDy=0;" parent="1" source="u5RR9yo09rP_WizoRHIb-126" target="u5RR9yo09rP_WizoRHIb-119" edge="1">
          <mxGeometry relative="1" as="geometry">
            <mxPoint x="-466.35538751010233" y="456.80873055293637" as="targetPoint" />
          </mxGeometry>
        </mxCell>
        <mxCell id="u5RR9yo09rP_WizoRHIb-121" value="WF开" style="edgeLabel;html=1;align=center;verticalAlign=middle;resizable=0;points=[];" parent="u5RR9yo09rP_WizoRHIb-120" vertex="1" connectable="0">
          <mxGeometry x="0.2785" y="-1" relative="1" as="geometry">
            <mxPoint y="-4" as="offset" />
          </mxGeometry>
        </mxCell>
        <mxCell id="u5RR9yo09rP_WizoRHIb-122" style="edgeStyle=orthogonalEdgeStyle;rounded=0;orthogonalLoop=1;jettySize=auto;html=1;exitX=1;exitY=0.5;exitDx=0;exitDy=0;" parent="1" source="u5RR9yo09rP_WizoRHIb-126" target="u5RR9yo09rP_WizoRHIb-136" edge="1">
          <mxGeometry relative="1" as="geometry" />
        </mxCell>
        <mxCell id="u5RR9yo09rP_WizoRHIb-123" value="WF关" style="edgeLabel;html=1;align=center;verticalAlign=middle;resizable=0;points=[];" parent="u5RR9yo09rP_WizoRHIb-122" vertex="1" connectable="0">
          <mxGeometry x="-0.1105" y="2" relative="1" as="geometry">
            <mxPoint y="20" as="offset" />
          </mxGeometry>
        </mxCell>
        <mxCell id="u5RR9yo09rP_WizoRHIb-124" value="" style="edgeStyle=orthogonalEdgeStyle;rounded=0;orthogonalLoop=1;jettySize=auto;html=1;" parent="1" source="u5RR9yo09rP_WizoRHIb-126" target="u5RR9yo09rP_WizoRHIb-127" edge="1">
          <mxGeometry relative="1" as="geometry" />
        </mxCell>
        <mxCell id="u5RR9yo09rP_WizoRHIb-125" value="玩家靠近" style="edgeLabel;html=1;align=center;verticalAlign=middle;resizable=0;points=[];" parent="u5RR9yo09rP_WizoRHIb-124" vertex="1" connectable="0">
          <mxGeometry x="-0.3235" y="-1" relative="1" as="geometry">
            <mxPoint as="offset" />
          </mxGeometry>
        </mxCell>
        <mxCell id="u5RR9yo09rP_WizoRHIb-126" value="WF/玩家靠近" style="rhombus;whiteSpace=wrap;html=1;" parent="1" vertex="1">
          <mxGeometry x="-415.53" y="371" width="132" height="80" as="geometry" />
        </mxCell>
        <mxCell id="u5RR9yo09rP_WizoRHIb-127" value="显示交互提示“关门”&lt;br style=&quot;border-color: var(--border-color);&quot;&gt;可以手动开启" style="rounded=1;whiteSpace=wrap;html=1;" parent="1" vertex="1">
          <mxGeometry x="-412.41999999999996" y="495" width="125.78" height="60" as="geometry" />
        </mxCell>
        <mxCell id="u5RR9yo09rP_WizoRHIb-128" value="" style="edgeStyle=orthogonalEdgeStyle;rounded=0;orthogonalLoop=1;jettySize=auto;html=1;" parent="1" source="u5RR9yo09rP_WizoRHIb-131" target="u5RR9yo09rP_WizoRHIb-134" edge="1">
          <mxGeometry relative="1" as="geometry" />
        </mxCell>
        <mxCell id="8EaNkNPe5WHarpM65g4N-3" value="玩家靠近" style="edgeLabel;html=1;align=center;verticalAlign=middle;resizable=0;points=[];" vertex="1" connectable="0" parent="u5RR9yo09rP_WizoRHIb-128">
          <mxGeometry x="0.043" relative="1" as="geometry">
            <mxPoint as="offset" />
          </mxGeometry>
        </mxCell>
        <mxCell id="u5RR9yo09rP_WizoRHIb-129" style="edgeStyle=orthogonalEdgeStyle;rounded=0;orthogonalLoop=1;jettySize=auto;html=1;exitX=1;exitY=0.5;exitDx=0;exitDy=0;entryX=0.5;entryY=0;entryDx=0;entryDy=0;" parent="1" source="u5RR9yo09rP_WizoRHIb-131" target="u5RR9yo09rP_WizoRHIb-137" edge="1">
          <mxGeometry relative="1" as="geometry" />
        </mxCell>
        <mxCell id="u5RR9yo09rP_WizoRHIb-130" value="WF关" style="edgeLabel;html=1;align=center;verticalAlign=middle;resizable=0;points=[];" parent="u5RR9yo09rP_WizoRHIb-129" vertex="1" connectable="0">
          <mxGeometry x="0.2095" y="-2" relative="1" as="geometry">
            <mxPoint x="2" y="2" as="offset" />
          </mxGeometry>
        </mxCell>
        <mxCell id="u5RR9yo09rP_WizoRHIb-131" value="WF/玩家靠近" style="rhombus;whiteSpace=wrap;html=1;" parent="1" vertex="1">
          <mxGeometry x="-92.77999999999997" y="371" width="132" height="80" as="geometry" />
        </mxCell>
        <mxCell id="u5RR9yo09rP_WizoRHIb-132" style="edgeStyle=orthogonalEdgeStyle;rounded=0;orthogonalLoop=1;jettySize=auto;html=1;exitX=0;exitY=0.5;exitDx=0;exitDy=0;entryX=0.5;entryY=0;entryDx=0;entryDy=0;" parent="1" source="u5RR9yo09rP_WizoRHIb-131" target="u5RR9yo09rP_WizoRHIb-135" edge="1">
          <mxGeometry relative="1" as="geometry">
            <mxPoint x="-148.35538751010233" y="471.80873055293637" as="targetPoint" />
            <mxPoint x="-130.14999999999998" y="426" as="sourcePoint" />
          </mxGeometry>
        </mxCell>
        <mxCell id="u5RR9yo09rP_WizoRHIb-133" value="WF开" style="edgeLabel;html=1;align=center;verticalAlign=middle;resizable=0;points=[];" parent="u5RR9yo09rP_WizoRHIb-132" vertex="1" connectable="0">
          <mxGeometry x="0.2596" relative="1" as="geometry">
            <mxPoint as="offset" />
          </mxGeometry>
        </mxCell>
        <mxCell id="u5RR9yo09rP_WizoRHIb-134" value="不显示交互提示&lt;br style=&quot;border-color: var(--border-color);&quot;&gt;也无法交互" style="rounded=1;whiteSpace=wrap;html=1;" parent="1" vertex="1">
          <mxGeometry x="-82.02999999999997" y="495" width="110.5" height="60" as="geometry" />
        </mxCell>
        <mxCell id="u5RR9yo09rP_WizoRHIb-135" value="开门" style="rounded=1;whiteSpace=wrap;html=1;" parent="1" vertex="1">
          <mxGeometry x="-158.14999999999998" y="495" width="48.37" height="60" as="geometry" />
        </mxCell>
        <mxCell id="u5RR9yo09rP_WizoRHIb-136" value="关门" style="rounded=1;whiteSpace=wrap;html=1;" parent="1" vertex="1">
          <mxGeometry x="-269.7" y="495" width="53.63" height="60" as="geometry" />
        </mxCell>
        <mxCell id="u5RR9yo09rP_WizoRHIb-137" value="无反应" style="rounded=1;whiteSpace=wrap;html=1;" parent="1" vertex="1">
          <mxGeometry x="55.85000000000002" y="495" width="55.17" height="60" as="geometry" />
        </mxCell>
        <mxCell id="8EaNkNPe5WHarpM65g4N-68" value="" style="edgeStyle=orthogonalEdgeStyle;rounded=0;orthogonalLoop=1;jettySize=auto;html=1;exitX=0.5;exitY=1;exitDx=0;exitDy=0;" edge="1" parent="1" source="8EaNkNPe5WHarpM65g4N-6" target="8EaNkNPe5WHarpM65g4N-21">
          <mxGeometry relative="1" as="geometry" />
        </mxCell>
        <mxCell id="8EaNkNPe5WHarpM65g4N-6" value="开始" style="ellipse;whiteSpace=wrap;html=1;" vertex="1" parent="1">
          <mxGeometry x="1782" y="-69" width="120" height="80" as="geometry" />
        </mxCell>
        <mxCell id="8EaNkNPe5WHarpM65g4N-83" style="edgeStyle=orthogonalEdgeStyle;rounded=0;orthogonalLoop=1;jettySize=auto;html=1;exitX=0;exitY=0.5;exitDx=0;exitDy=0;entryX=0.5;entryY=0;entryDx=0;entryDy=0;" edge="1" parent="1" source="8EaNkNPe5WHarpM65g4N-16" target="8EaNkNPe5WHarpM65g4N-47">
          <mxGeometry relative="1" as="geometry">
            <mxPoint x="2189.999332634421" y="365.64686135684747" as="targetPoint" />
          </mxGeometry>
        </mxCell>
        <mxCell id="8EaNkNPe5WHarpM65g4N-113" value="Y" style="edgeLabel;html=1;align=center;verticalAlign=middle;resizable=0;points=[];" vertex="1" connectable="0" parent="8EaNkNPe5WHarpM65g4N-83">
          <mxGeometry x="-0.4028" y="1" relative="1" as="geometry">
            <mxPoint as="offset" />
          </mxGeometry>
        </mxCell>
        <mxCell id="8EaNkNPe5WHarpM65g4N-84" style="edgeStyle=orthogonalEdgeStyle;rounded=0;orthogonalLoop=1;jettySize=auto;html=1;exitX=1;exitY=0.5;exitDx=0;exitDy=0;entryX=0.5;entryY=0;entryDx=0;entryDy=0;" edge="1" parent="1" source="8EaNkNPe5WHarpM65g4N-16" target="8EaNkNPe5WHarpM65g4N-162">
          <mxGeometry relative="1" as="geometry">
            <mxPoint x="2672.6399999999994" y="406" as="targetPoint" />
          </mxGeometry>
        </mxCell>
        <mxCell id="8EaNkNPe5WHarpM65g4N-110" value="N" style="edgeLabel;html=1;align=center;verticalAlign=middle;resizable=0;points=[];" vertex="1" connectable="0" parent="8EaNkNPe5WHarpM65g4N-84">
          <mxGeometry x="-0.7746" relative="1" as="geometry">
            <mxPoint x="1" as="offset" />
          </mxGeometry>
        </mxCell>
        <mxCell id="8EaNkNPe5WHarpM65g4N-16" value="是否允许交互关门" style="rhombus;whiteSpace=wrap;html=1;" vertex="1" parent="1">
          <mxGeometry x="2424" y="178" width="132" height="80" as="geometry" />
        </mxCell>
        <mxCell id="8EaNkNPe5WHarpM65g4N-69" value="" style="edgeStyle=orthogonalEdgeStyle;rounded=0;orthogonalLoop=1;jettySize=auto;html=1;entryX=0.5;entryY=0;entryDx=0;entryDy=0;" edge="1" parent="1" source="8EaNkNPe5WHarpM65g4N-21" target="8EaNkNPe5WHarpM65g4N-78">
          <mxGeometry relative="1" as="geometry" />
        </mxCell>
        <mxCell id="8EaNkNPe5WHarpM65g4N-75" value="Y" style="edgeLabel;html=1;align=center;verticalAlign=middle;resizable=0;points=[];" vertex="1" connectable="0" parent="8EaNkNPe5WHarpM65g4N-69">
          <mxGeometry x="-0.0946" relative="1" as="geometry">
            <mxPoint as="offset" />
          </mxGeometry>
        </mxCell>
        <mxCell id="8EaNkNPe5WHarpM65g4N-76" style="edgeStyle=orthogonalEdgeStyle;rounded=0;orthogonalLoop=1;jettySize=auto;html=1;exitX=1;exitY=0.5;exitDx=0;exitDy=0;entryX=0.5;entryY=0;entryDx=0;entryDy=0;" edge="1" parent="1" source="8EaNkNPe5WHarpM65g4N-21" target="8EaNkNPe5WHarpM65g4N-16">
          <mxGeometry relative="1" as="geometry" />
        </mxCell>
        <mxCell id="8EaNkNPe5WHarpM65g4N-80" value="N" style="edgeLabel;html=1;align=center;verticalAlign=middle;resizable=0;points=[];" vertex="1" connectable="0" parent="8EaNkNPe5WHarpM65g4N-76">
          <mxGeometry x="-0.4665" y="-2" relative="1" as="geometry">
            <mxPoint as="offset" />
          </mxGeometry>
        </mxCell>
        <mxCell id="8EaNkNPe5WHarpM65g4N-21" value="是否允许交互开门" style="rhombus;whiteSpace=wrap;html=1;" vertex="1" parent="1">
          <mxGeometry x="1776" y="101" width="132" height="80" as="geometry" />
        </mxCell>
        <mxCell id="8EaNkNPe5WHarpM65g4N-43" value="" style="edgeStyle=orthogonalEdgeStyle;rounded=0;orthogonalLoop=1;jettySize=auto;html=1;exitX=0;exitY=0.5;exitDx=0;exitDy=0;entryX=0.5;entryY=0;entryDx=0;entryDy=0;" edge="1" source="8EaNkNPe5WHarpM65g4N-47" target="8EaNkNPe5WHarpM65g4N-55" parent="1">
          <mxGeometry relative="1" as="geometry">
            <mxPoint x="2027.1399999999999" y="461" as="targetPoint" />
          </mxGeometry>
        </mxCell>
        <mxCell id="8EaNkNPe5WHarpM65g4N-44" value="开" style="edgeLabel;html=1;align=center;verticalAlign=middle;resizable=0;points=[];" vertex="1" connectable="0" parent="8EaNkNPe5WHarpM65g4N-43">
          <mxGeometry x="-0.2913" y="1" relative="1" as="geometry">
            <mxPoint as="offset" />
          </mxGeometry>
        </mxCell>
        <mxCell id="8EaNkNPe5WHarpM65g4N-45" style="edgeStyle=orthogonalEdgeStyle;rounded=0;orthogonalLoop=1;jettySize=auto;html=1;exitX=1;exitY=0.5;exitDx=0;exitDy=0;entryX=0.5;entryY=0;entryDx=0;entryDy=0;" edge="1" source="8EaNkNPe5WHarpM65g4N-47" target="8EaNkNPe5WHarpM65g4N-61" parent="1">
          <mxGeometry relative="1" as="geometry" />
        </mxCell>
        <mxCell id="8EaNkNPe5WHarpM65g4N-46" value="关" style="edgeLabel;html=1;align=center;verticalAlign=middle;resizable=0;points=[];" vertex="1" connectable="0" parent="8EaNkNPe5WHarpM65g4N-45">
          <mxGeometry x="-0.43" y="-1" relative="1" as="geometry">
            <mxPoint as="offset" />
          </mxGeometry>
        </mxCell>
        <mxCell id="8EaNkNPe5WHarpM65g4N-47" value="当前处于开/关？" style="rhombus;whiteSpace=wrap;html=1;" vertex="1" parent="1">
          <mxGeometry x="2114.74" y="322" width="132" height="80" as="geometry" />
        </mxCell>
        <mxCell id="8EaNkNPe5WHarpM65g4N-48" value="无反应" style="rounded=1;whiteSpace=wrap;html=1;fillColor=#C4C4C4;fontColor=#333333;strokeColor=#666666;" vertex="1" parent="1">
          <mxGeometry x="1885.8999999999999" y="539" width="55.17" height="60" as="geometry" />
        </mxCell>
        <mxCell id="8EaNkNPe5WHarpM65g4N-49" style="edgeStyle=orthogonalEdgeStyle;rounded=0;orthogonalLoop=1;jettySize=auto;html=1;exitX=0;exitY=0.5;exitDx=0;exitDy=0;entryX=0.5;entryY=0;entryDx=0;entryDy=0;" edge="1" source="8EaNkNPe5WHarpM65g4N-55" target="8EaNkNPe5WHarpM65g4N-48" parent="1">
          <mxGeometry relative="1" as="geometry">
            <mxPoint x="1888.9346124898975" y="500.80873055293637" as="targetPoint" />
          </mxGeometry>
        </mxCell>
        <mxCell id="8EaNkNPe5WHarpM65g4N-50" value="WF开" style="edgeLabel;html=1;align=center;verticalAlign=middle;resizable=0;points=[];" vertex="1" connectable="0" parent="8EaNkNPe5WHarpM65g4N-49">
          <mxGeometry x="0.2785" y="-1" relative="1" as="geometry">
            <mxPoint y="-4" as="offset" />
          </mxGeometry>
        </mxCell>
        <mxCell id="8EaNkNPe5WHarpM65g4N-51" style="edgeStyle=orthogonalEdgeStyle;rounded=0;orthogonalLoop=1;jettySize=auto;html=1;exitX=1;exitY=0.5;exitDx=0;exitDy=0;" edge="1" source="8EaNkNPe5WHarpM65g4N-55" target="8EaNkNPe5WHarpM65g4N-66" parent="1">
          <mxGeometry relative="1" as="geometry" />
        </mxCell>
        <mxCell id="8EaNkNPe5WHarpM65g4N-52" value="WF关" style="edgeLabel;html=1;align=center;verticalAlign=middle;resizable=0;points=[];" vertex="1" connectable="0" parent="8EaNkNPe5WHarpM65g4N-51">
          <mxGeometry x="-0.1105" y="2" relative="1" as="geometry">
            <mxPoint y="20" as="offset" />
          </mxGeometry>
        </mxCell>
        <mxCell id="8EaNkNPe5WHarpM65g4N-53" value="" style="edgeStyle=orthogonalEdgeStyle;rounded=0;orthogonalLoop=1;jettySize=auto;html=1;" edge="1" source="8EaNkNPe5WHarpM65g4N-55" target="8EaNkNPe5WHarpM65g4N-56" parent="1">
          <mxGeometry relative="1" as="geometry" />
        </mxCell>
        <mxCell id="8EaNkNPe5WHarpM65g4N-54" value="玩家靠近" style="edgeLabel;html=1;align=center;verticalAlign=middle;resizable=0;points=[];" vertex="1" connectable="0" parent="8EaNkNPe5WHarpM65g4N-53">
          <mxGeometry x="-0.3235" y="-1" relative="1" as="geometry">
            <mxPoint as="offset" />
          </mxGeometry>
        </mxCell>
        <mxCell id="8EaNkNPe5WHarpM65g4N-55" value="WF/玩家靠近" style="rhombus;whiteSpace=wrap;html=1;" vertex="1" parent="1">
          <mxGeometry x="1953.37" y="415" width="132" height="80" as="geometry" />
        </mxCell>
        <mxCell id="8EaNkNPe5WHarpM65g4N-56" value="显示交互提示“关门”&lt;br style=&quot;border-color: var(--border-color);&quot;&gt;可以手动开启" style="rounded=1;whiteSpace=wrap;html=1;fillColor=#d5e8d4;strokeColor=#82b366;" vertex="1" parent="1">
          <mxGeometry x="1956.4799999999998" y="539" width="125.78" height="60" as="geometry" />
        </mxCell>
        <mxCell id="8EaNkNPe5WHarpM65g4N-57" value="" style="edgeStyle=orthogonalEdgeStyle;rounded=0;orthogonalLoop=1;jettySize=auto;html=1;" edge="1" source="8EaNkNPe5WHarpM65g4N-61" target="8EaNkNPe5WHarpM65g4N-64" parent="1">
          <mxGeometry relative="1" as="geometry" />
        </mxCell>
        <mxCell id="8EaNkNPe5WHarpM65g4N-58" value="玩家靠近" style="edgeLabel;html=1;align=center;verticalAlign=middle;resizable=0;points=[];" vertex="1" connectable="0" parent="8EaNkNPe5WHarpM65g4N-57">
          <mxGeometry x="0.043" relative="1" as="geometry">
            <mxPoint as="offset" />
          </mxGeometry>
        </mxCell>
        <mxCell id="8EaNkNPe5WHarpM65g4N-59" style="edgeStyle=orthogonalEdgeStyle;rounded=0;orthogonalLoop=1;jettySize=auto;html=1;exitX=1;exitY=0.5;exitDx=0;exitDy=0;entryX=0.5;entryY=0;entryDx=0;entryDy=0;" edge="1" source="8EaNkNPe5WHarpM65g4N-61" target="8EaNkNPe5WHarpM65g4N-67" parent="1">
          <mxGeometry relative="1" as="geometry" />
        </mxCell>
        <mxCell id="8EaNkNPe5WHarpM65g4N-60" value="WF关" style="edgeLabel;html=1;align=center;verticalAlign=middle;resizable=0;points=[];" vertex="1" connectable="0" parent="8EaNkNPe5WHarpM65g4N-59">
          <mxGeometry x="0.2095" y="-2" relative="1" as="geometry">
            <mxPoint x="2" y="2" as="offset" />
          </mxGeometry>
        </mxCell>
        <mxCell id="8EaNkNPe5WHarpM65g4N-61" value="WF/玩家靠近" style="rhombus;whiteSpace=wrap;html=1;" vertex="1" parent="1">
          <mxGeometry x="2276.1200000000003" y="415" width="132" height="80" as="geometry" />
        </mxCell>
        <mxCell id="8EaNkNPe5WHarpM65g4N-62" style="edgeStyle=orthogonalEdgeStyle;rounded=0;orthogonalLoop=1;jettySize=auto;html=1;exitX=0;exitY=0.5;exitDx=0;exitDy=0;entryX=0.5;entryY=0;entryDx=0;entryDy=0;" edge="1" source="8EaNkNPe5WHarpM65g4N-61" target="8EaNkNPe5WHarpM65g4N-65" parent="1">
          <mxGeometry relative="1" as="geometry">
            <mxPoint x="2206.9346124898975" y="515.8087305529364" as="targetPoint" />
            <mxPoint x="2225.14" y="470" as="sourcePoint" />
          </mxGeometry>
        </mxCell>
        <mxCell id="8EaNkNPe5WHarpM65g4N-63" value="WF开" style="edgeLabel;html=1;align=center;verticalAlign=middle;resizable=0;points=[];" vertex="1" connectable="0" parent="8EaNkNPe5WHarpM65g4N-62">
          <mxGeometry x="0.2596" relative="1" as="geometry">
            <mxPoint as="offset" />
          </mxGeometry>
        </mxCell>
        <mxCell id="8EaNkNPe5WHarpM65g4N-64" value="不显示交互提示&lt;br style=&quot;border-color: var(--border-color);&quot;&gt;也无法交互" style="rounded=1;whiteSpace=wrap;html=1;fillColor=#f8cecc;strokeColor=#b85450;" vertex="1" parent="1">
          <mxGeometry x="2286.8700000000003" y="539" width="110.5" height="60" as="geometry" />
        </mxCell>
        <mxCell id="8EaNkNPe5WHarpM65g4N-65" value="开门" style="rounded=1;whiteSpace=wrap;html=1;" vertex="1" parent="1">
          <mxGeometry x="2207.54" y="539" width="48.37" height="60" as="geometry" />
        </mxCell>
        <mxCell id="8EaNkNPe5WHarpM65g4N-66" value="关门" style="rounded=1;whiteSpace=wrap;html=1;" vertex="1" parent="1">
          <mxGeometry x="2099.2000000000003" y="539" width="53.63" height="60" as="geometry" />
        </mxCell>
        <mxCell id="8EaNkNPe5WHarpM65g4N-67" value="无反应" style="rounded=1;whiteSpace=wrap;html=1;fillColor=#C4C4C4;fontColor=#333333;strokeColor=#666666;" vertex="1" parent="1">
          <mxGeometry x="2421.54" y="539" width="55.17" height="60" as="geometry" />
        </mxCell>
        <mxCell id="8EaNkNPe5WHarpM65g4N-114" style="edgeStyle=orthogonalEdgeStyle;rounded=0;orthogonalLoop=1;jettySize=auto;html=1;exitX=1;exitY=0.5;exitDx=0;exitDy=0;entryX=0.5;entryY=0;entryDx=0;entryDy=0;" edge="1" parent="1" source="8EaNkNPe5WHarpM65g4N-78" target="8EaNkNPe5WHarpM65g4N-89">
          <mxGeometry relative="1" as="geometry">
            <mxPoint x="1495.4637846105243" y="357.93389892578125" as="targetPoint" />
          </mxGeometry>
        </mxCell>
        <mxCell id="8EaNkNPe5WHarpM65g4N-115" value="N" style="edgeLabel;html=1;align=center;verticalAlign=middle;resizable=0;points=[];" vertex="1" connectable="0" parent="8EaNkNPe5WHarpM65g4N-114">
          <mxGeometry x="-0.8101" relative="1" as="geometry">
            <mxPoint x="1" as="offset" />
          </mxGeometry>
        </mxCell>
        <mxCell id="8EaNkNPe5WHarpM65g4N-118" style="edgeStyle=orthogonalEdgeStyle;rounded=0;orthogonalLoop=1;jettySize=auto;html=1;exitX=0;exitY=0.5;exitDx=0;exitDy=0;entryX=0.5;entryY=0;entryDx=0;entryDy=0;" edge="1" parent="1" source="8EaNkNPe5WHarpM65g4N-78" target="8EaNkNPe5WHarpM65g4N-117">
          <mxGeometry relative="1" as="geometry" />
        </mxCell>
        <mxCell id="8EaNkNPe5WHarpM65g4N-155" value="Y" style="edgeLabel;html=1;align=center;verticalAlign=middle;resizable=0;points=[];" vertex="1" connectable="0" parent="8EaNkNPe5WHarpM65g4N-118">
          <mxGeometry x="-0.4621" y="-2" relative="1" as="geometry">
            <mxPoint as="offset" />
          </mxGeometry>
        </mxCell>
        <mxCell id="8EaNkNPe5WHarpM65g4N-78" value="是否允许交互关门" style="rhombus;whiteSpace=wrap;html=1;" vertex="1" parent="1">
          <mxGeometry x="1120" y="178" width="132" height="80" as="geometry" />
        </mxCell>
        <mxCell id="8EaNkNPe5WHarpM65g4N-85" value="" style="edgeStyle=orthogonalEdgeStyle;rounded=0;orthogonalLoop=1;jettySize=auto;html=1;exitX=0;exitY=0.5;exitDx=0;exitDy=0;entryX=0.5;entryY=0;entryDx=0;entryDy=0;" edge="1" parent="1" source="8EaNkNPe5WHarpM65g4N-89" target="8EaNkNPe5WHarpM65g4N-97">
          <mxGeometry relative="1" as="geometry">
            <mxPoint x="1362.1399999999999" y="461" as="targetPoint" />
          </mxGeometry>
        </mxCell>
        <mxCell id="8EaNkNPe5WHarpM65g4N-86" value="开" style="edgeLabel;html=1;align=center;verticalAlign=middle;resizable=0;points=[];" vertex="1" connectable="0" parent="8EaNkNPe5WHarpM65g4N-85">
          <mxGeometry x="-0.2913" y="1" relative="1" as="geometry">
            <mxPoint as="offset" />
          </mxGeometry>
        </mxCell>
        <mxCell id="8EaNkNPe5WHarpM65g4N-87" style="edgeStyle=orthogonalEdgeStyle;rounded=0;orthogonalLoop=1;jettySize=auto;html=1;exitX=1;exitY=0.5;exitDx=0;exitDy=0;entryX=0.5;entryY=0;entryDx=0;entryDy=0;" edge="1" parent="1" source="8EaNkNPe5WHarpM65g4N-89" target="8EaNkNPe5WHarpM65g4N-103">
          <mxGeometry relative="1" as="geometry" />
        </mxCell>
        <mxCell id="8EaNkNPe5WHarpM65g4N-88" value="关" style="edgeLabel;html=1;align=center;verticalAlign=middle;resizable=0;points=[];" vertex="1" connectable="0" parent="8EaNkNPe5WHarpM65g4N-87">
          <mxGeometry x="-0.43" y="-1" relative="1" as="geometry">
            <mxPoint as="offset" />
          </mxGeometry>
        </mxCell>
        <mxCell id="8EaNkNPe5WHarpM65g4N-89" value="当前处于开/关？" style="rhombus;whiteSpace=wrap;html=1;" vertex="1" parent="1">
          <mxGeometry x="1438.57" y="322" width="132" height="80" as="geometry" />
        </mxCell>
        <mxCell id="8EaNkNPe5WHarpM65g4N-90" value="无反应" style="rounded=1;whiteSpace=wrap;html=1;fillColor=#C4C4C4;fontColor=#333333;strokeColor=#666666;" vertex="1" parent="1">
          <mxGeometry x="1207.29" y="539" width="55.17" height="60" as="geometry" />
        </mxCell>
        <mxCell id="8EaNkNPe5WHarpM65g4N-91" style="edgeStyle=orthogonalEdgeStyle;rounded=0;orthogonalLoop=1;jettySize=auto;html=1;exitX=0;exitY=0.5;exitDx=0;exitDy=0;entryX=0.5;entryY=0;entryDx=0;entryDy=0;" edge="1" parent="1" source="8EaNkNPe5WHarpM65g4N-97" target="8EaNkNPe5WHarpM65g4N-90">
          <mxGeometry relative="1" as="geometry">
            <mxPoint x="1223.9346124898975" y="500.80873055293637" as="targetPoint" />
          </mxGeometry>
        </mxCell>
        <mxCell id="8EaNkNPe5WHarpM65g4N-92" value="WF开" style="edgeLabel;html=1;align=center;verticalAlign=middle;resizable=0;points=[];" vertex="1" connectable="0" parent="8EaNkNPe5WHarpM65g4N-91">
          <mxGeometry x="0.2785" y="-1" relative="1" as="geometry">
            <mxPoint y="-4" as="offset" />
          </mxGeometry>
        </mxCell>
        <mxCell id="8EaNkNPe5WHarpM65g4N-93" style="edgeStyle=orthogonalEdgeStyle;rounded=0;orthogonalLoop=1;jettySize=auto;html=1;exitX=1;exitY=0.5;exitDx=0;exitDy=0;" edge="1" parent="1" source="8EaNkNPe5WHarpM65g4N-97" target="8EaNkNPe5WHarpM65g4N-108">
          <mxGeometry relative="1" as="geometry" />
        </mxCell>
        <mxCell id="8EaNkNPe5WHarpM65g4N-94" value="WF关" style="edgeLabel;html=1;align=center;verticalAlign=middle;resizable=0;points=[];" vertex="1" connectable="0" parent="8EaNkNPe5WHarpM65g4N-93">
          <mxGeometry x="-0.1105" y="2" relative="1" as="geometry">
            <mxPoint y="20" as="offset" />
          </mxGeometry>
        </mxCell>
        <mxCell id="8EaNkNPe5WHarpM65g4N-95" value="" style="edgeStyle=orthogonalEdgeStyle;rounded=0;orthogonalLoop=1;jettySize=auto;html=1;" edge="1" parent="1" source="8EaNkNPe5WHarpM65g4N-97" target="8EaNkNPe5WHarpM65g4N-98">
          <mxGeometry relative="1" as="geometry" />
        </mxCell>
        <mxCell id="8EaNkNPe5WHarpM65g4N-96" value="玩家靠近" style="edgeLabel;html=1;align=center;verticalAlign=middle;resizable=0;points=[];" vertex="1" connectable="0" parent="8EaNkNPe5WHarpM65g4N-95">
          <mxGeometry x="-0.3235" y="-1" relative="1" as="geometry">
            <mxPoint as="offset" />
          </mxGeometry>
        </mxCell>
        <mxCell id="8EaNkNPe5WHarpM65g4N-97" value="WF/玩家靠近" style="rhombus;whiteSpace=wrap;html=1;" vertex="1" parent="1">
          <mxGeometry x="1277.19" y="415" width="132" height="80" as="geometry" />
        </mxCell>
        <mxCell id="8EaNkNPe5WHarpM65g4N-98" value="不显示交互提示&lt;br style=&quot;border-color: var(--border-color);&quot;&gt;也无法交互" style="rounded=1;whiteSpace=wrap;html=1;fillColor=#f8cecc;strokeColor=#b85450;" vertex="1" parent="1">
          <mxGeometry x="1277.87" y="539" width="125.78" height="60" as="geometry" />
        </mxCell>
        <mxCell id="8EaNkNPe5WHarpM65g4N-99" value="" style="edgeStyle=orthogonalEdgeStyle;rounded=0;orthogonalLoop=1;jettySize=auto;html=1;" edge="1" parent="1" source="8EaNkNPe5WHarpM65g4N-103" target="8EaNkNPe5WHarpM65g4N-106">
          <mxGeometry relative="1" as="geometry" />
        </mxCell>
        <mxCell id="8EaNkNPe5WHarpM65g4N-100" value="玩家靠近" style="edgeLabel;html=1;align=center;verticalAlign=middle;resizable=0;points=[];" vertex="1" connectable="0" parent="8EaNkNPe5WHarpM65g4N-99">
          <mxGeometry x="0.043" relative="1" as="geometry">
            <mxPoint as="offset" />
          </mxGeometry>
        </mxCell>
        <mxCell id="8EaNkNPe5WHarpM65g4N-101" style="edgeStyle=orthogonalEdgeStyle;rounded=0;orthogonalLoop=1;jettySize=auto;html=1;exitX=1;exitY=0.5;exitDx=0;exitDy=0;entryX=0.5;entryY=0;entryDx=0;entryDy=0;" edge="1" parent="1" source="8EaNkNPe5WHarpM65g4N-103" target="8EaNkNPe5WHarpM65g4N-109">
          <mxGeometry relative="1" as="geometry" />
        </mxCell>
        <mxCell id="8EaNkNPe5WHarpM65g4N-102" value="WF关" style="edgeLabel;html=1;align=center;verticalAlign=middle;resizable=0;points=[];" vertex="1" connectable="0" parent="8EaNkNPe5WHarpM65g4N-101">
          <mxGeometry x="0.2095" y="-2" relative="1" as="geometry">
            <mxPoint x="2" y="2" as="offset" />
          </mxGeometry>
        </mxCell>
        <mxCell id="8EaNkNPe5WHarpM65g4N-103" value="WF/玩家靠近" style="rhombus;whiteSpace=wrap;html=1;" vertex="1" parent="1">
          <mxGeometry x="1599.9400000000003" y="415" width="132" height="80" as="geometry" />
        </mxCell>
        <mxCell id="8EaNkNPe5WHarpM65g4N-104" style="edgeStyle=orthogonalEdgeStyle;rounded=0;orthogonalLoop=1;jettySize=auto;html=1;exitX=0;exitY=0.5;exitDx=0;exitDy=0;entryX=0.5;entryY=0;entryDx=0;entryDy=0;" edge="1" parent="1" source="8EaNkNPe5WHarpM65g4N-103" target="8EaNkNPe5WHarpM65g4N-107">
          <mxGeometry relative="1" as="geometry">
            <mxPoint x="1541.9346124898975" y="515.8087305529364" as="targetPoint" />
            <mxPoint x="1560.1399999999999" y="470" as="sourcePoint" />
          </mxGeometry>
        </mxCell>
        <mxCell id="8EaNkNPe5WHarpM65g4N-105" value="WF开" style="edgeLabel;html=1;align=center;verticalAlign=middle;resizable=0;points=[];" vertex="1" connectable="0" parent="8EaNkNPe5WHarpM65g4N-104">
          <mxGeometry x="0.2596" relative="1" as="geometry">
            <mxPoint as="offset" />
          </mxGeometry>
        </mxCell>
        <mxCell id="8EaNkNPe5WHarpM65g4N-106" value="显示交互提示“开门”&lt;br style=&quot;border-color: var(--border-color);&quot;&gt;可以手动开门" style="rounded=1;whiteSpace=wrap;html=1;fillColor=#d5e8d4;strokeColor=#82b366;" vertex="1" parent="1">
          <mxGeometry x="1610.6900000000003" y="539" width="110.5" height="60" as="geometry" />
        </mxCell>
        <mxCell id="8EaNkNPe5WHarpM65g4N-107" value="开门" style="rounded=1;whiteSpace=wrap;html=1;" vertex="1" parent="1">
          <mxGeometry x="1530.04" y="539" width="48.37" height="60" as="geometry" />
        </mxCell>
        <mxCell id="8EaNkNPe5WHarpM65g4N-108" value="关门" style="rounded=1;whiteSpace=wrap;html=1;" vertex="1" parent="1">
          <mxGeometry x="1420.5900000000001" y="539" width="53.63" height="60" as="geometry" />
        </mxCell>
        <mxCell id="8EaNkNPe5WHarpM65g4N-109" value="无反应" style="rounded=1;whiteSpace=wrap;html=1;fillColor=#C4C4C4;fontColor=#333333;strokeColor=#666666;" vertex="1" parent="1">
          <mxGeometry x="1746.68" y="539" width="55.17" height="60" as="geometry" />
        </mxCell>
        <mxCell id="8EaNkNPe5WHarpM65g4N-152" style="edgeStyle=orthogonalEdgeStyle;rounded=0;orthogonalLoop=1;jettySize=auto;html=1;exitX=1;exitY=0.5;exitDx=0;exitDy=0;" edge="1" parent="1" source="8EaNkNPe5WHarpM65g4N-117" target="8EaNkNPe5WHarpM65g4N-149">
          <mxGeometry relative="1" as="geometry" />
        </mxCell>
        <mxCell id="8EaNkNPe5WHarpM65g4N-157" value="关" style="edgeLabel;html=1;align=center;verticalAlign=middle;resizable=0;points=[];" vertex="1" connectable="0" parent="8EaNkNPe5WHarpM65g4N-152">
          <mxGeometry x="-0.3351" y="-4" relative="1" as="geometry">
            <mxPoint as="offset" />
          </mxGeometry>
        </mxCell>
        <mxCell id="8EaNkNPe5WHarpM65g4N-153" style="edgeStyle=orthogonalEdgeStyle;rounded=0;orthogonalLoop=1;jettySize=auto;html=1;exitX=0;exitY=0.5;exitDx=0;exitDy=0;" edge="1" parent="1" source="8EaNkNPe5WHarpM65g4N-117" target="8EaNkNPe5WHarpM65g4N-139">
          <mxGeometry relative="1" as="geometry" />
        </mxCell>
        <mxCell id="8EaNkNPe5WHarpM65g4N-156" value="开" style="edgeLabel;html=1;align=center;verticalAlign=middle;resizable=0;points=[];" vertex="1" connectable="0" parent="8EaNkNPe5WHarpM65g4N-153">
          <mxGeometry x="-0.4434" y="-2" relative="1" as="geometry">
            <mxPoint as="offset" />
          </mxGeometry>
        </mxCell>
        <mxCell id="8EaNkNPe5WHarpM65g4N-117" value="当前处于开/关？" style="rhombus;whiteSpace=wrap;html=1;" vertex="1" parent="1">
          <mxGeometry x="801.43" y="322" width="132" height="80" as="geometry" />
        </mxCell>
        <mxCell id="8EaNkNPe5WHarpM65g4N-132" value="无反应" style="rounded=1;whiteSpace=wrap;html=1;fillColor=#C4C4C4;fontColor=#333333;strokeColor=#666666;" vertex="1" parent="1">
          <mxGeometry x="576" y="539" width="55.17" height="60" as="geometry" />
        </mxCell>
        <mxCell id="8EaNkNPe5WHarpM65g4N-133" style="edgeStyle=orthogonalEdgeStyle;rounded=0;orthogonalLoop=1;jettySize=auto;html=1;exitX=0;exitY=0.5;exitDx=0;exitDy=0;entryX=0.5;entryY=0;entryDx=0;entryDy=0;" edge="1" source="8EaNkNPe5WHarpM65g4N-139" target="8EaNkNPe5WHarpM65g4N-132" parent="1">
          <mxGeometry relative="1" as="geometry">
            <mxPoint x="592.6446124898976" y="500.80873055293637" as="targetPoint" />
          </mxGeometry>
        </mxCell>
        <mxCell id="8EaNkNPe5WHarpM65g4N-134" value="WF开" style="edgeLabel;html=1;align=center;verticalAlign=middle;resizable=0;points=[];" vertex="1" connectable="0" parent="8EaNkNPe5WHarpM65g4N-133">
          <mxGeometry x="0.2785" y="-1" relative="1" as="geometry">
            <mxPoint y="-4" as="offset" />
          </mxGeometry>
        </mxCell>
        <mxCell id="8EaNkNPe5WHarpM65g4N-135" style="edgeStyle=orthogonalEdgeStyle;rounded=0;orthogonalLoop=1;jettySize=auto;html=1;exitX=1;exitY=0.5;exitDx=0;exitDy=0;" edge="1" source="8EaNkNPe5WHarpM65g4N-139" target="8EaNkNPe5WHarpM65g4N-141" parent="1">
          <mxGeometry relative="1" as="geometry" />
        </mxCell>
        <mxCell id="8EaNkNPe5WHarpM65g4N-136" value="WF关" style="edgeLabel;html=1;align=center;verticalAlign=middle;resizable=0;points=[];" vertex="1" connectable="0" parent="8EaNkNPe5WHarpM65g4N-135">
          <mxGeometry x="-0.1105" y="2" relative="1" as="geometry">
            <mxPoint y="20" as="offset" />
          </mxGeometry>
        </mxCell>
        <mxCell id="8EaNkNPe5WHarpM65g4N-137" value="" style="edgeStyle=orthogonalEdgeStyle;rounded=0;orthogonalLoop=1;jettySize=auto;html=1;" edge="1" source="8EaNkNPe5WHarpM65g4N-139" target="8EaNkNPe5WHarpM65g4N-140" parent="1">
          <mxGeometry relative="1" as="geometry" />
        </mxCell>
        <mxCell id="8EaNkNPe5WHarpM65g4N-138" value="玩家靠近" style="edgeLabel;html=1;align=center;verticalAlign=middle;resizable=0;points=[];" vertex="1" connectable="0" parent="8EaNkNPe5WHarpM65g4N-137">
          <mxGeometry x="-0.3235" y="-1" relative="1" as="geometry">
            <mxPoint as="offset" />
          </mxGeometry>
        </mxCell>
        <mxCell id="8EaNkNPe5WHarpM65g4N-139" value="WF/玩家靠近" style="rhombus;whiteSpace=wrap;html=1;" vertex="1" parent="1">
          <mxGeometry x="643.47" y="415" width="132" height="80" as="geometry" />
        </mxCell>
        <mxCell id="8EaNkNPe5WHarpM65g4N-140" value="显示交互提示“关门”&lt;br style=&quot;border-color: var(--border-color);&quot;&gt;可以手动关门" style="rounded=1;whiteSpace=wrap;html=1;fillColor=#d5e8d4;strokeColor=#82b366;" vertex="1" parent="1">
          <mxGeometry x="646.5799999999999" y="539" width="125.78" height="60" as="geometry" />
        </mxCell>
        <mxCell id="8EaNkNPe5WHarpM65g4N-141" value="关门" style="rounded=1;whiteSpace=wrap;html=1;" vertex="1" parent="1">
          <mxGeometry x="789.3000000000002" y="539" width="53.63" height="60" as="geometry" />
        </mxCell>
        <mxCell id="8EaNkNPe5WHarpM65g4N-142" value="开门" style="rounded=1;whiteSpace=wrap;html=1;" vertex="1" parent="1">
          <mxGeometry x="897.9999999999999" y="539" width="55.17" height="60" as="geometry" />
        </mxCell>
        <mxCell id="8EaNkNPe5WHarpM65g4N-143" style="edgeStyle=orthogonalEdgeStyle;rounded=0;orthogonalLoop=1;jettySize=auto;html=1;exitX=0;exitY=0.5;exitDx=0;exitDy=0;entryX=0.5;entryY=0;entryDx=0;entryDy=0;" edge="1" source="8EaNkNPe5WHarpM65g4N-149" target="8EaNkNPe5WHarpM65g4N-142" parent="1">
          <mxGeometry relative="1" as="geometry">
            <mxPoint x="901.0346124898975" y="500.80873055293637" as="targetPoint" />
          </mxGeometry>
        </mxCell>
        <mxCell id="8EaNkNPe5WHarpM65g4N-144" value="WF开" style="edgeLabel;html=1;align=center;verticalAlign=middle;resizable=0;points=[];" vertex="1" connectable="0" parent="8EaNkNPe5WHarpM65g4N-143">
          <mxGeometry x="0.2785" y="-1" relative="1" as="geometry">
            <mxPoint y="-4" as="offset" />
          </mxGeometry>
        </mxCell>
        <mxCell id="8EaNkNPe5WHarpM65g4N-145" style="edgeStyle=orthogonalEdgeStyle;rounded=0;orthogonalLoop=1;jettySize=auto;html=1;exitX=1;exitY=0.5;exitDx=0;exitDy=0;" edge="1" source="8EaNkNPe5WHarpM65g4N-149" target="8EaNkNPe5WHarpM65g4N-151" parent="1">
          <mxGeometry relative="1" as="geometry" />
        </mxCell>
        <mxCell id="8EaNkNPe5WHarpM65g4N-146" value="WF关" style="edgeLabel;html=1;align=center;verticalAlign=middle;resizable=0;points=[];" vertex="1" connectable="0" parent="8EaNkNPe5WHarpM65g4N-145">
          <mxGeometry x="-0.1105" y="2" relative="1" as="geometry">
            <mxPoint y="20" as="offset" />
          </mxGeometry>
        </mxCell>
        <mxCell id="8EaNkNPe5WHarpM65g4N-147" value="" style="edgeStyle=orthogonalEdgeStyle;rounded=0;orthogonalLoop=1;jettySize=auto;html=1;" edge="1" source="8EaNkNPe5WHarpM65g4N-149" target="8EaNkNPe5WHarpM65g4N-150" parent="1">
          <mxGeometry relative="1" as="geometry" />
        </mxCell>
        <mxCell id="8EaNkNPe5WHarpM65g4N-148" value="玩家靠近" style="edgeLabel;html=1;align=center;verticalAlign=middle;resizable=0;points=[];" vertex="1" connectable="0" parent="8EaNkNPe5WHarpM65g4N-147">
          <mxGeometry x="-0.3235" y="-1" relative="1" as="geometry">
            <mxPoint as="offset" />
          </mxGeometry>
        </mxCell>
        <mxCell id="8EaNkNPe5WHarpM65g4N-149" value="WF/玩家靠近" style="rhombus;whiteSpace=wrap;html=1;" vertex="1" parent="1">
          <mxGeometry x="965.4699999999999" y="415" width="132" height="80" as="geometry" />
        </mxCell>
        <mxCell id="8EaNkNPe5WHarpM65g4N-150" value="显示交互提示“开门”&lt;br style=&quot;border-color: var(--border-color);&quot;&gt;可以手动开门" style="rounded=1;whiteSpace=wrap;html=1;fillColor=#d5e8d4;strokeColor=#82b366;" vertex="1" parent="1">
          <mxGeometry x="968.5799999999998" y="539" width="125.78" height="60" as="geometry" />
        </mxCell>
        <mxCell id="8EaNkNPe5WHarpM65g4N-151" value="无反应" style="rounded=1;whiteSpace=wrap;html=1;fillColor=#C4C4C4;fontColor=#333333;strokeColor=#666666;" vertex="1" parent="1">
          <mxGeometry x="1111.3000000000002" y="539" width="53.63" height="60" as="geometry" />
        </mxCell>
        <mxCell id="8EaNkNPe5WHarpM65g4N-158" value="" style="edgeStyle=orthogonalEdgeStyle;rounded=0;orthogonalLoop=1;jettySize=auto;html=1;exitX=0;exitY=0.5;exitDx=0;exitDy=0;entryX=0.5;entryY=0;entryDx=0;entryDy=0;" edge="1" source="8EaNkNPe5WHarpM65g4N-162" target="8EaNkNPe5WHarpM65g4N-170" parent="1">
          <mxGeometry relative="1" as="geometry">
            <mxPoint x="2645.24" y="461" as="targetPoint" />
          </mxGeometry>
        </mxCell>
        <mxCell id="8EaNkNPe5WHarpM65g4N-159" value="开" style="edgeLabel;html=1;align=center;verticalAlign=middle;resizable=0;points=[];" vertex="1" connectable="0" parent="8EaNkNPe5WHarpM65g4N-158">
          <mxGeometry x="-0.2913" y="1" relative="1" as="geometry">
            <mxPoint as="offset" />
          </mxGeometry>
        </mxCell>
        <mxCell id="8EaNkNPe5WHarpM65g4N-160" style="edgeStyle=orthogonalEdgeStyle;rounded=0;orthogonalLoop=1;jettySize=auto;html=1;exitX=1;exitY=0.5;exitDx=0;exitDy=0;entryX=0.5;entryY=0;entryDx=0;entryDy=0;" edge="1" source="8EaNkNPe5WHarpM65g4N-162" target="8EaNkNPe5WHarpM65g4N-176" parent="1">
          <mxGeometry relative="1" as="geometry" />
        </mxCell>
        <mxCell id="8EaNkNPe5WHarpM65g4N-161" value="关" style="edgeLabel;html=1;align=center;verticalAlign=middle;resizable=0;points=[];" vertex="1" connectable="0" parent="8EaNkNPe5WHarpM65g4N-160">
          <mxGeometry x="-0.43" y="-1" relative="1" as="geometry">
            <mxPoint as="offset" />
          </mxGeometry>
        </mxCell>
        <mxCell id="8EaNkNPe5WHarpM65g4N-162" value="当前处于开/关？" style="rhombus;whiteSpace=wrap;html=1;" vertex="1" parent="1">
          <mxGeometry x="2732.8399999999997" y="322" width="132" height="80" as="geometry" />
        </mxCell>
        <mxCell id="8EaNkNPe5WHarpM65g4N-163" value="无反应" style="rounded=1;whiteSpace=wrap;html=1;fillColor=#C4C4C4;fontColor=#333333;strokeColor=#666666;" vertex="1" parent="1">
          <mxGeometry x="2504" y="539" width="55.17" height="60" as="geometry" />
        </mxCell>
        <mxCell id="8EaNkNPe5WHarpM65g4N-164" style="edgeStyle=orthogonalEdgeStyle;rounded=0;orthogonalLoop=1;jettySize=auto;html=1;exitX=0;exitY=0.5;exitDx=0;exitDy=0;entryX=0.5;entryY=0;entryDx=0;entryDy=0;" edge="1" source="8EaNkNPe5WHarpM65g4N-170" target="8EaNkNPe5WHarpM65g4N-163" parent="1">
          <mxGeometry relative="1" as="geometry">
            <mxPoint x="2507.0346124898974" y="500.80873055293637" as="targetPoint" />
          </mxGeometry>
        </mxCell>
        <mxCell id="8EaNkNPe5WHarpM65g4N-165" value="WF开" style="edgeLabel;html=1;align=center;verticalAlign=middle;resizable=0;points=[];" vertex="1" connectable="0" parent="8EaNkNPe5WHarpM65g4N-164">
          <mxGeometry x="0.2785" y="-1" relative="1" as="geometry">
            <mxPoint y="-4" as="offset" />
          </mxGeometry>
        </mxCell>
        <mxCell id="8EaNkNPe5WHarpM65g4N-166" style="edgeStyle=orthogonalEdgeStyle;rounded=0;orthogonalLoop=1;jettySize=auto;html=1;exitX=1;exitY=0.5;exitDx=0;exitDy=0;" edge="1" source="8EaNkNPe5WHarpM65g4N-170" target="8EaNkNPe5WHarpM65g4N-181" parent="1">
          <mxGeometry relative="1" as="geometry" />
        </mxCell>
        <mxCell id="8EaNkNPe5WHarpM65g4N-167" value="WF关" style="edgeLabel;html=1;align=center;verticalAlign=middle;resizable=0;points=[];" vertex="1" connectable="0" parent="8EaNkNPe5WHarpM65g4N-166">
          <mxGeometry x="-0.1105" y="2" relative="1" as="geometry">
            <mxPoint y="20" as="offset" />
          </mxGeometry>
        </mxCell>
        <mxCell id="8EaNkNPe5WHarpM65g4N-168" value="" style="edgeStyle=orthogonalEdgeStyle;rounded=0;orthogonalLoop=1;jettySize=auto;html=1;" edge="1" source="8EaNkNPe5WHarpM65g4N-170" target="8EaNkNPe5WHarpM65g4N-171" parent="1">
          <mxGeometry relative="1" as="geometry" />
        </mxCell>
        <mxCell id="8EaNkNPe5WHarpM65g4N-169" value="玩家靠近" style="edgeLabel;html=1;align=center;verticalAlign=middle;resizable=0;points=[];" vertex="1" connectable="0" parent="8EaNkNPe5WHarpM65g4N-168">
          <mxGeometry x="-0.3235" y="-1" relative="1" as="geometry">
            <mxPoint as="offset" />
          </mxGeometry>
        </mxCell>
        <mxCell id="8EaNkNPe5WHarpM65g4N-170" value="WF/玩家靠近" style="rhombus;whiteSpace=wrap;html=1;" vertex="1" parent="1">
          <mxGeometry x="2571.47" y="415" width="132" height="80" as="geometry" />
        </mxCell>
        <mxCell id="8EaNkNPe5WHarpM65g4N-171" value="不显示交互提示&lt;br style=&quot;border-color: var(--border-color);&quot;&gt;也无法交互" style="rounded=1;whiteSpace=wrap;html=1;fillColor=#f8cecc;strokeColor=#b85450;" vertex="1" parent="1">
          <mxGeometry x="2574.58" y="539" width="125.78" height="60" as="geometry" />
        </mxCell>
        <mxCell id="8EaNkNPe5WHarpM65g4N-172" value="" style="edgeStyle=orthogonalEdgeStyle;rounded=0;orthogonalLoop=1;jettySize=auto;html=1;" edge="1" source="8EaNkNPe5WHarpM65g4N-176" target="8EaNkNPe5WHarpM65g4N-179" parent="1">
          <mxGeometry relative="1" as="geometry" />
        </mxCell>
        <mxCell id="8EaNkNPe5WHarpM65g4N-173" value="玩家靠近" style="edgeLabel;html=1;align=center;verticalAlign=middle;resizable=0;points=[];" vertex="1" connectable="0" parent="8EaNkNPe5WHarpM65g4N-172">
          <mxGeometry x="0.043" relative="1" as="geometry">
            <mxPoint as="offset" />
          </mxGeometry>
        </mxCell>
        <mxCell id="8EaNkNPe5WHarpM65g4N-174" style="edgeStyle=orthogonalEdgeStyle;rounded=0;orthogonalLoop=1;jettySize=auto;html=1;exitX=1;exitY=0.5;exitDx=0;exitDy=0;entryX=0.5;entryY=0;entryDx=0;entryDy=0;" edge="1" source="8EaNkNPe5WHarpM65g4N-176" target="8EaNkNPe5WHarpM65g4N-182" parent="1">
          <mxGeometry relative="1" as="geometry" />
        </mxCell>
        <mxCell id="8EaNkNPe5WHarpM65g4N-175" value="WF关" style="edgeLabel;html=1;align=center;verticalAlign=middle;resizable=0;points=[];" vertex="1" connectable="0" parent="8EaNkNPe5WHarpM65g4N-174">
          <mxGeometry x="0.2095" y="-2" relative="1" as="geometry">
            <mxPoint x="2" y="2" as="offset" />
          </mxGeometry>
        </mxCell>
        <mxCell id="8EaNkNPe5WHarpM65g4N-176" value="WF/玩家靠近" style="rhombus;whiteSpace=wrap;html=1;" vertex="1" parent="1">
          <mxGeometry x="2894.2200000000003" y="415" width="132" height="80" as="geometry" />
        </mxCell>
        <mxCell id="8EaNkNPe5WHarpM65g4N-177" style="edgeStyle=orthogonalEdgeStyle;rounded=0;orthogonalLoop=1;jettySize=auto;html=1;exitX=0;exitY=0.5;exitDx=0;exitDy=0;entryX=0.5;entryY=0;entryDx=0;entryDy=0;" edge="1" source="8EaNkNPe5WHarpM65g4N-176" target="8EaNkNPe5WHarpM65g4N-180" parent="1">
          <mxGeometry relative="1" as="geometry">
            <mxPoint x="2825.0346124898974" y="515.8087305529364" as="targetPoint" />
            <mxPoint x="2843.24" y="470" as="sourcePoint" />
          </mxGeometry>
        </mxCell>
        <mxCell id="8EaNkNPe5WHarpM65g4N-178" value="WF开" style="edgeLabel;html=1;align=center;verticalAlign=middle;resizable=0;points=[];" vertex="1" connectable="0" parent="8EaNkNPe5WHarpM65g4N-177">
          <mxGeometry x="0.2596" relative="1" as="geometry">
            <mxPoint as="offset" />
          </mxGeometry>
        </mxCell>
        <mxCell id="8EaNkNPe5WHarpM65g4N-179" value="不显示交互提示&lt;br style=&quot;border-color: var(--border-color);&quot;&gt;也无法交互" style="rounded=1;whiteSpace=wrap;html=1;fillColor=#f8cecc;strokeColor=#b85450;" vertex="1" parent="1">
          <mxGeometry x="2904.9700000000003" y="539" width="110.5" height="60" as="geometry" />
        </mxCell>
        <mxCell id="8EaNkNPe5WHarpM65g4N-180" value="开门" style="rounded=1;whiteSpace=wrap;html=1;" vertex="1" parent="1">
          <mxGeometry x="2825.64" y="539" width="48.37" height="60" as="geometry" />
        </mxCell>
        <mxCell id="8EaNkNPe5WHarpM65g4N-181" value="关门" style="rounded=1;whiteSpace=wrap;html=1;" vertex="1" parent="1">
          <mxGeometry x="2717.3" y="539" width="53.63" height="60" as="geometry" />
        </mxCell>
        <mxCell id="8EaNkNPe5WHarpM65g4N-182" value="无反应" style="rounded=1;whiteSpace=wrap;html=1;fillColor=#C4C4C4;fontColor=#333333;strokeColor=#666666;" vertex="1" parent="1">
          <mxGeometry x="3039.64" y="539" width="55.17" height="60" as="geometry" />
        </mxCell>
      </root>
    </mxGraphModel>
  </diagram>
</mxfile>
